<svg xmlns="http://www.w3.org/2000/svg" viewBox="0 0 512 512"><!--!Font Awesome Free 6.5.1 by @fontawesome - https://fontawesome.com License - https://fontawesome.com/license/free Copyright 2024 Fonticons, Inc.--><path fill="#d14c32" d="M511.3 20.8c-11.6 38.7-34.3 111.7-61.3 187.7 7 2.1 13.4 4 18.6 5.6a16.1 16.1 0 0 1 9.5 22.9c-22.1 42.3-82.7 152.8-142.5 214.4-1 1.1-2 2.5-3 3.5A194.8 194.8 0 1 1 57.1 179.4c1-1 2.4-2 3.5-3 61.6-59.9 172-120.4 214.4-142.5a16.1 16.1 0 0 1 22.9 9.5c1.6 5.1 3.5 11.6 5.6 18.6C379.3 35 452.4 12.3 491.1 .7A16.2 16.2 0 0 1 511.3 20.8zM320 320A128 128 0 1 0 192 448 128 128 0 0 0 320 320zm-128-32a32 32 0 1 1 -32-32A32 32 0 0 1 192 288zm32 80a16 16 0 1 1 -16-16A16 16 0 0 1 224 368z"/></svg>